<svg width="100" height="45" viewBox="0 0 100 45" fill="none" xmlns="http://www.w3.org/2000/svg">
<path d="M37.9676 0.570312L24.875 31.8039H16.3336L9.89062 6.87656C9.5 5.34492 9.16055 4.78125 7.97188 4.13359C6.02891 3.07812 2.82031 2.09102 0 1.47695L0.190234 0.570312H13.9418C15.6918 0.570312 17.2676 1.73555 17.6684 3.75312L21.0727 21.8285L29.4773 0.570312H37.9676ZM49.5145 0.570312L42.8336 31.8039H34.7523L41.434 0.570312H49.5148H49.5145ZM71.4348 21.6063C71.4684 13.3645 60.0387 12.907 60.1133 9.22461C60.1406 8.10508 61.207 6.91328 63.5414 6.60859C64.6977 6.45898 67.8922 6.33984 71.5105 8.00703L72.9262 1.37969C70.982 0.676563 68.4801 0 65.368 0C57.3797 0 51.7605 4.24297 51.7156 10.3234C51.6633 14.8211 55.7293 17.3277 58.7871 18.8258C61.9367 20.3555 62.993 21.3387 62.9785 22.7059C62.9559 24.8016 60.4629 25.7293 58.1453 25.7637C54.0813 25.8281 51.7254 24.6652 49.8461 23.7898L48.3793 30.6367C50.2699 31.5031 53.7543 32.2559 57.3633 32.2941C65.8555 32.2941 71.4098 28.1 71.4348 21.6066V21.6063ZM92.5285 31.8039H100L93.4727 0.570312H86.5793C85.0246 0.570312 83.718 1.47266 83.1383 2.85977L71.0133 31.8039H79.4988L81.182 27.1383H91.5492L92.5289 31.8039H92.5285ZM83.509 20.7379L87.7637 9.00859L90.2078 20.7379H83.5086H83.509ZM59.8566 40.4012H56.573V43.457H60.2457V44.3758H55.4668V35.8984H60.0574V36.8172H56.573V39.4957H59.8562V40.402L59.8566 40.4012ZM61.9422 35.4457H63.0484V44.3754H61.9422V35.4457ZM65.8398 41.5328C65.8648 43.0301 66.8086 43.6461 67.9273 43.6461C68.7203 43.6461 69.2105 43.5078 69.6137 43.332L69.8145 44.1246C69.4246 44.3004 68.7457 44.5141 67.7766 44.5141C65.9031 44.5141 64.784 43.2691 64.784 41.4324C64.784 39.5965 65.8648 38.1621 67.6387 38.1621C69.6387 38.1621 70.1543 39.8984 70.1543 41.0176C70.1543 41.2437 70.1414 41.407 70.116 41.5332H65.8398V41.5328ZM69.0848 40.7406C69.0977 40.0492 68.7957 38.9547 67.5504 38.9547C66.4184 38.9547 65.9402 39.9734 65.852 40.7406H69.0848ZM76.1762 44.1617C75.8871 44.3004 75.2453 44.5145 74.4281 44.5145C72.5918 44.5145 71.3969 43.2691 71.3969 41.4074C71.3969 39.5332 72.6793 38.1625 74.6668 38.1625C75.3207 38.1625 75.8992 38.3254 76.2012 38.4895L75.9504 39.332C75.6852 39.1938 75.2703 39.0422 74.6668 39.0422C73.2703 39.0422 72.5164 40.0863 72.5164 41.3449C72.5164 42.7531 73.4219 43.6211 74.6293 43.6211C75.2582 43.6211 75.673 43.4703 75.9875 43.332L76.1762 44.1617ZM79.2809 36.8289V38.2879H80.8652V39.1301H79.2809V42.4133C79.2809 43.1688 79.4949 43.5957 80.1109 43.5957C80.4125 43.5957 80.5891 43.5711 80.7527 43.5199L80.8031 44.3637C80.5891 44.4387 80.2496 44.5141 79.8219 44.5141C79.3059 44.5141 78.8906 44.3379 78.627 44.0492C78.325 43.709 78.1992 43.1688 78.1992 42.4516V39.1301H77.2555V38.2879H78.1992V37.1562L79.2812 36.8293L79.2809 36.8289ZM82.4109 40.1875C82.4109 39.4703 82.3977 38.8543 82.3605 38.2879H83.3293L83.3801 39.4949H83.4168C83.6941 38.6781 84.3727 38.1621 85.1145 38.1621C85.2281 38.1621 85.3164 38.175 85.4172 38.1871V39.2316C85.3039 39.2059 85.191 39.2059 85.0391 39.2059C84.2602 39.2059 83.7059 39.7844 83.5555 40.6152C83.5295 40.7859 83.5168 40.9583 83.5176 41.1309V44.3762H82.4109V40.1875ZM92.2199 41.2812C92.2199 43.5328 90.6473 44.5141 89.1887 44.5141C87.5531 44.5141 86.2707 43.3063 86.2707 41.3824C86.2707 39.357 87.6164 38.1625 89.2895 38.1625C91.0375 38.1625 92.2199 39.432 92.2199 41.2816V41.2812ZM87.4023 41.3445C87.4023 42.6777 88.157 43.6844 89.2387 43.6844C90.2957 43.6844 91.0875 42.6898 91.0875 41.3191C91.0875 40.2879 90.5719 38.9918 89.2637 38.9918C87.9688 38.9918 87.4023 40.2 87.4023 41.3445ZM93.916 39.9355C93.916 39.2945 93.9027 38.791 93.8652 38.2883H94.8465L94.9094 39.2945H94.9344C95.2363 38.7281 95.9406 38.1625 96.9469 38.1625C97.7891 38.1625 99.0977 38.6656 99.0977 40.7527V44.3758H97.991V40.8664C97.991 39.8859 97.6262 39.0676 96.5824 39.0676C95.8652 39.0676 95.2988 39.5836 95.0984 40.1996C95.0477 40.3383 95.0227 40.5266 95.0227 40.7156V44.3758H93.916V39.9355Z" fill="#1A1F71"/>
</svg>
