<svg width="40" height="40" viewBox="0 0 40 40" fill="none" xmlns="http://www.w3.org/2000/svg">
<path d="M14.1673 31.6165H13.334C6.66732 31.6165 3.33398 29.9499 3.33398 21.6165V13.2832C3.33398 6.61654 6.66732 3.2832 13.334 3.2832H26.6673C33.334 3.2832 36.6673 6.61654 36.6673 13.2832V21.6165C36.6673 28.2832 33.334 31.6165 26.6673 31.6165H25.834C25.3173 31.6165 24.8173 31.8666 24.5007 32.2832L22.0007 35.6166C20.9007 37.0832 19.1006 37.0832 18.0006 35.6166L15.5006 32.2832C15.234 31.9166 14.634 31.6165 14.1673 31.6165Z" stroke="#121212" stroke-width="1.5" stroke-miterlimit="10" stroke-linecap="round" stroke-linejoin="round"/>
<path d="M13.3333 14.5L10 17.8333L13.3333 21.1667" stroke="#121212" stroke-width="1.5" stroke-miterlimit="10" stroke-linecap="round" stroke-linejoin="round"/>
<path d="M26.666 14.5L29.9993 17.8333L26.666 21.1667" stroke="#121212" stroke-width="1.5" stroke-miterlimit="10" stroke-linecap="round" stroke-linejoin="round"/>
<path d="M21.6673 13.95L18.334 21.7167" stroke="#121212" stroke-width="1.5" stroke-miterlimit="10" stroke-linecap="round" stroke-linejoin="round"/>
</svg>
