<svg width="32" height="32" viewBox="0 0 32 32" fill="none" xmlns="http://www.w3.org/2000/svg">
<path d="M11.2 8.80078V23.1992L24 16.0008L11.2 8.80078Z" fill="#131E47"/>
<path d="M16 32C12.8355 32 9.74207 31.0616 7.11088 29.3035C4.4797 27.5454 2.42894 25.0466 1.21793 22.1229C0.00693254 19.1993 -0.309921 15.9823 0.307443 12.8786C0.924806 9.77487 2.44866 6.92394 4.6863 4.6863C6.92394 2.44866 9.77487 0.924806 12.8786 0.307443C15.9823 -0.309921 19.1993 0.00693254 22.1229 1.21793C25.0466 2.42894 27.5454 4.4797 29.3035 7.11088C31.0616 9.74207 32 12.8355 32 16C31.9953 20.242 30.3081 24.309 27.3086 27.3086C24.309 30.3081 20.242 31.9953 16 32ZM16 3.20001C13.4684 3.20001 10.9937 3.95071 8.88871 5.3572C6.78376 6.76368 5.14315 8.76276 4.17435 11.1017C3.20555 13.4406 2.95206 16.0142 3.44596 18.4972C3.93985 20.9801 5.15893 23.2609 6.94904 25.051C8.73915 26.8411 11.0199 28.0602 13.5028 28.5541C15.9858 29.0479 18.5595 28.7945 20.8984 27.8257C23.2372 26.8569 25.2363 25.2162 26.6428 23.1113C28.0493 21.0064 28.8 18.5316 28.8 16C28.7958 12.6065 27.4458 9.35326 25.0463 6.95371C22.6467 4.55417 19.3935 3.20424 16 3.20001Z" fill="#131E47"/>
</svg>
