<svg width="32" height="32" viewBox="0 0 32 32" fill="none" xmlns="http://www.w3.org/2000/svg">
<path d="M16 8.58594V13.0259" stroke="white" stroke-width="1.5" stroke-miterlimit="10" stroke-linecap="round"/>
<path d="M16.0267 2.66602C11.12 2.66602 7.14665 6.63935 7.14665 11.546V14.346C7.14665 15.2527 6.77332 16.6127 6.30665 17.386L4.61332 20.2127C3.57332 21.9593 4.29332 23.906 6.21332 24.546C12.5867 26.666 19.48 26.666 25.8533 24.546C27.6533 23.946 28.4267 21.8393 27.4533 20.2127L25.76 17.386C25.2933 16.6127 24.92 15.2393 24.92 14.346V11.546C24.9067 6.66602 20.9067 2.66602 16.0267 2.66602Z" stroke="white" stroke-width="1.5" stroke-miterlimit="10" stroke-linecap="round"/>
<path d="M20.44 25.0938C20.44 27.5338 18.44 29.5338 16 29.5338C14.7867 29.5338 13.6667 29.0271 12.8667 28.2271C12.0667 27.4271 11.56 26.3071 11.56 25.0938" stroke="white" stroke-width="1.5" stroke-miterlimit="10"/>
</svg>
